<?xml version="1.0" encoding="UTF-8"?><svg id="Layer_2" xmlns="http://www.w3.org/2000/svg" viewBox="0 0 3000 3000"><defs><style>.cls-1{fill:#fff;}</style></defs><path class="cls-1" d="M2799.8,1555.55c-8,140.81-44.71,299.61-97.78,430.22-3.32,8.18-20.4,48.03-26.41,49.21l-58.01-28.66-.53-3.54c39.92-92.39,72.22-188.41,90.65-287.7,20.72-111.58,26.15-224.56,18.95-337.72,1.42-5.87,23.63-1.09,30.13-1.71,11.97-1.14,23.99-8.76,37.65-5.09l5.35,33.75v39.11c-4.19,2.47-4.27,13.02,0,15.64v44.33l-1.76,2.08,1.76,3.13v26.07c-4.19,2.47-4.27,13.02,0,15.64-.05,1.72.1,3.5,0,5.21Z"/><path class="cls-1" d="M1488.26,139.71c83.85,3.7,172.66,16.33,254.87,33.25,22.44,4.62,45.15,9.19,67.63,12.97l4.92,3.31c4,6.38-15.59,57.36-18.6,67.93-173.66-47.48-353.47-55-531.32-28.38-23.23,3.48-46.12,9.31-69.38,12.45.48-5.59-3.88-10.19-4.78-14.82-2.4-12.38-3.34-33.75-6.3-45.7-.89-3.59-6.03-4.93-4.7-9.71,19.17.4,37.42-7.11,56.35-10.14,72.95-11.69,151.21-16.88,226.56-18.57,6.58-.15,13.86,6.28,19.55-2.59,1.72.04,3.5-.08,5.21,0Z"/><path class="cls-1" d="M1496.08,2814.94c-7.26-9.81-18.79-.4-28.67-2.63l2.59-70.4c72.62-.14,145.44-6.62,216.91-19.06,129.09-22.46,254.23-66.22,369.75-126.94,1.94,23.41,23.88,40.75,28.71,65.14-6.53,2.27-15.64,5.26-21.49,8.54-160.67,90.07-366.75,132.41-548.45,142.63l-6.31,2.72h-13.04Z"/><path class="cls-1" d="M1399.07,247.38c924.66-43.57,1576.19,901.66,1184.77,1747.98-395.15,854.39-1569.02,965.08-2119.82,199.84C-102.35,1408.35,434.84,292.82,1399.07,247.38ZM1402.22,275.3l-117.49,14.64-4.92,263.19c-25.42,30.97-17.55,66.28-18.28,104.27-.32,16.66-4.97,33.73-2.48,51.81,3.17,23.11,19.66,23.13,15.48,57.66-1.57,12.95-11.67,18.34-15.75,29.9l-13-500.63-88.78,19.98-15.55,462.4-20.83-451.08c-3.45-3.38-48.16,12.84-56.11,15.61s-51.39,17.94-52.98,22.63l-.29,969.68-26.2,63.75V376.99c-14.07,1.76-107.76,47.72-109.07,53.68l-16.11,905.84-20.85-883.9-85.99,56.09-2.67,5.15-18.26,465.44-18.24-438.02c-1.67-1.95-17.04,11.1-19.48,13.09-13.03,10.61-28.13,23.72-40.52,35.1-8.44,7.75-56.17,54.3-57.27,60.07l1.35,1659.47c25.02,28.05,54.56,56.61,83.4,80.87,3.29,2.77,30.52,25.86,32.51,23.52l18.24-430.2,18.32,457.55c1.32,6.97,28.01,24.13,35.64,29.54,5.15,3.65,50.53,34.47,52.96,31.76l10.47-451.07c.54-.73,14.79,8.17,15.6,9.15,5.4,6.5,2.05,52.56,2.52,65.27,3.39,90.83,6.22,182.7,8.04,273.57.7,35.22-3.14,75.44-.2,109.71.61,7.12,1.31,17.04,6.87,21.81s44.95,23.79,54.87,28.57c14.62,7.04,32.44,16.24,47.87,18.62v-482.38l26.07-5.21v503.24l109.49,36.49,20.85-453.67,15.69,458.91-10.43,2.56,99.05,23.49,20.85-902.15,18.28,903.47,4.3,6.13,113.04,10.81v-136.89c-106.55-59.37-111.8-219.97,0-275.08V901.08l26.07,32.59v1316.76l5.39,2.92c32.35-10.43,67.7-7.7,98.83,5.07l4.91-3.15,8.31-374.98c.6-26.92-1.21-54.07-.11-80.96.13-3.18-1.97-9.7,2.58-9.09l7.83,475.87c1.28,6.66,15.3,12.93,20.91,18.2,79.79,74.93,70.76,185.42-15.11,250.62l4.66,141.84,88.62-10.47,15.69-458.88,5.28,9.03,15.56,442.06,130.36-31.29v-1082.09c4.33,4.89,26.07,40.51,26.07,43.02v1028.63c15.73-2.48,111.43-37.79,114.29-46.06l16.11-717.9c3.38.11,6.81,10.05,7.2,12.32,7.62,43.82,2,97.66,3.09,142.92l13.17,546.15c12.83-7.18,85.41-42.32,88.12-51.35l16.17-428.42c4.73.98,4.86,5.12,5.28,9.03,3.08,28.08,1.12,58.2,2.4,86.25,3.29,71.94,7.54,144.25,10.64,216.2,1.37,31.65.35,63.65,2.53,95.28l112.14-82.67-.17-283.26,26.19-12.15v268.57c7.57-2.5,16.22-10.28,22.23-15.58,63.71-56.11,119.61-129.46,169.38-197.88l17.01-474.89,18.25,417.18c13.36-16.02,24.31-37.02,34.32-55.61,192.07-356.93,189.49-800.34-10.43-1153.39-7.06-12.48-14.32-26.76-23.89-37.36l-18.25,411.96-18.83-470.08c-51.17-69.31-113.33-156.63-181.95-209.16-2.63-2.01-3.29-5.03-7.84-3.9v1212.46l-26.2-61.14-.41-1175.54c-1.91-6.57-57.61-47.87-67.53-55.01-5-3.59-41.38-30.55-44.03-27.65l-18.24,440.63-18.26-462.83c-1.27-6.64-20.09-15.81-26.95-19.99-6-3.66-59.41-33.4-61.71-30.83l-20.85,844.78-15.78-720.84c-.79-36.12,2.13-73.95.22-109.73-.53-9.84-1.5-34.07-8.64-38.29-16.85-9.95-54.42-22.76-74.26-30.04-11.3-4.15-22.94-7.91-34.54-11.09v698.79l-26.19-40.3-.15-668.66-130.09-31.54-15.56,439.44-5.28,9.03-16.02-452.04-3.99-3.83-84.28-10.87-11.75,417.18c-20.71-15.93-22.43-27.03-18.89-52.76,8.44-61.37,36.88-102.03,8.44-168.85-9.71-22.81-12.87-25.13-14.44-53.35-2.68-48.08,3.17-96.84-2.5-144.82h-99.08v147.32l-13.08,5.25c18.2,49.04,19.52,103.65-6.51,149.88l-6.48-3.9v-298.55ZM570.44,2277.81V676.84c-38.53,38.58-71.61,83.43-101.56,129.19l-18.4,460.07-16.88-398.97c-4.92-4.89-2.69-2.3-4.63.63-130.96,197.33-184.64,500.05-160.97,733.39,17.48,172.27,74.21,341.25,162.96,488.9l19.52-406.74c4.58,45.44,3.31,91.33,5.13,136.99,4.34,108.98,12.97,218.89,11.17,328.12,32.67,44.33,63.38,91.48,103.66,129.38ZM1456.34,2296.74c-115.7,15.75-116.61,196.65,0,212.46,167.59,22.72,166.6-235.13,0-212.46ZM1428.29,2555.5v123.85c33.2,4.5,65.71-1.5,99.1.01l2.57-130.38c-20.06,7.91-44.55,11.81-66.13,10.09-9.13-.73-22.9-6.2-30.14-6.49-3.22-.13-3.39.44-5.39,2.92Z"/><path class="cls-1" d="M2345.33,471.65c31.12,26.96,57.52,57.43,86.7,86.68,7.22,7.24,17.58,11.94,23.4,21.09-4.86,15.7-30.55,21.94-34.89,34.97-3.44,10.33.56,21-2.72,31.15-139.05-155.9-314-282.7-512.17-352.18-5.34-6.25,22.65-55.12,20.69-67.62,1.58-1.13,32.24,9.07,37.16,11.07,132.4,53.83,273.44,140.95,381.83,234.84Z"/><path class="cls-1" d="M2530.87,671.88c6.22,11.09,15.85,19.65,23.36,30.2,98.74,138.63,166.06,296.62,211.1,461.62-2.88,12.7,20.04,86.91,15.94,91.75-15.56,5.91-32.23,4.15-47.24,5.96-5.92.71-16.46,9.17-21.63,2.15-31.25-184.33-103.21-350.96-206.67-505.15-6.82-10.16-26.39-31.94-29.98-40.6-5.36-12.97,13.68-9.74,16.01-16.54l.37-21.79,11.69,10.3c6.49-.78,22.21-21.15,27.05-17.88Z"/><path class="cls-1" d="M2150.56,2538.6c21.21-11.31,41.47-25.4,60.78-39.64,120.83-89.08,226.01-199.32,309.51-324.1,6.39-9.56,38.28-65.84,41.63-68.01,8.53-5.52,28.08,14.56,35.59,19.36,4.25,2.72,9.7,2.24,13.79,4.46,15.34,8.31,10.1,18.72,2.37,30.67-103.1,159.34-228.9,307.2-386.79,413.7-5.18,3.5-32.42,22.65-34.49,23.07-12.73,2.62-11.5-8.73-16.77-16.13-9.8-13.76-19.16-27.41-25.64-43.39Z"/><path class="cls-1" d="M685.93,2492.35c-2.54,2.17-3.54,9.59-6.39,13.2-8.6,10.92-17.7,20.22-24.32,32.9-7.29-1.69-9.7-10.02-13.74-13-119.03-87.67-221.47-206.84-301.62-328.65-32.25-49.02-57.07-101.52-83.66-153.7l63.9-31.26c83.86,184.54,216.06,346.63,376.88,469.29,5.13,7.74-8.46,9.02-11.04,11.22Z"/><path class="cls-1" d="M1068.44,202.28c-2.39,10.52,8.06,19.47,9.89,25.34,1.91,6.12.91,14.84,3.29,22.78s8.19,11.98,7.68,19.64c-194.15,59.87-370.7,168.08-514.95,310.28l-48.34-50.81,2.53-5.37c24.54-19.69,47.97-40.68,71.87-61.13,127.46-109.04,266.21-189.53,427.48-247.84,12.52-4.53,27.78-7.37,40.54-12.89Z"/><path class="cls-1" d="M1357.9,2736.73l-5.22,70.41c-12.84-1.9-27.71-1.24-40.16-2.88-155.06-20.42-288.41-58.86-429.16-123.62-42.03-19.34-75.02-45.3-113.85-66.06-7.35-3.93-17.7-1.17-16.61-11.98.42-4.12,30.25-52.72,33.9-55.06l3.54-.9c169.38,108.53,366.19,174.76,567.55,190.1Z"/><path class="cls-1" d="M213.22,1310.48c-29.51,200.47-4.71,408.01,62.64,598.32l-65.22,27.44c1.36-10.81-6.8-18.48-9.72-28.11-43.72-143.82-68.22-274.02-71.23-424.16-1.05-52.37,4.6-104.32,8.62-155.84.29-3.74,3.38-24.36,4.74-25.29l70.17,7.65Z"/><path class="cls-1" d="M454.79,623.02c11.25,10.33,24.65,23.43,34.7,34.49,1.95,2.15,5.04,3.46,7.93,3.74l-.03,3.8c-130.65,153.11-221.85,338.87-266.22,535.58-23.32-1.93-45.17-9.19-67.51-15.39,1.76-10.81,2.69-21.57,5.52-32.27,50.23-190.32,140.8-375.79,266.74-523.28,3-3.51,6.01-8.16,6.8-12.8,2.04-1.42,10.12,4.35,12.06,6.13Z"/><path class="cls-1" d="M1493.95,681.57c135.22,108.47,246.7,249.54,344.29,392.33,160.55,234.91,301.42,505.44,414.47,766.7,11.8,27.27,43.88,90.95,48.48,115.82,3.15,17.07-13.09,45.17-20.63,61.58-6.48,14.12-26.84,59.82-39.41,64.89-6.54,2.64-14.59,2.66-21.52,1.98-14.45-1.41-99.46-33.97-114.39-42.04-6.41-3.47-11.49-6.83-15.78-12.9-174.73-424.17-412.33-820.51-691.16-1183.59-1.74,6.07-1,10.91-3.7,17.14-8.03,18.58-52.63,69.39-67.52,91.53-25.78,38.34-80.56,122.85-86.29,166.61-9.96,75.99,114.14,130.67,92.92,205.06l-300.29,706.18c-22.37,39.94-60.73,37.26-99.97,26.66-50.84-13.73-145.07-78.08-138.46-137.35,94.92-246.12,214.35-483.64,311.25-729.1,53.74-136.13,94.51-263.96,179.13-386.68,6.5-9.42,35.75-42.83,37.6-48.65,2.91-9.16-16.38-24.55-22.37-32.73-4.46-6.1-11.77-13.52-12.96-20.94,4.37-33.54-.82-71.5,2.5-104.11,1.57-15.44,4.26-23.82,21.82-22.08,11.38,1.12,78.12,23.12,88.51,29.02,9.16,5.2,17.11,15.08,26.56,20.35.75-4.22-4.47-4.92-3.6-11.04.91-6.38,16.74-34.2,20.57-44.92,14.12-39.49,20.21-80.45,7.78-121.28,104.89.58,75.17,121.3,55.43,187.1-2.57,8.58-16.58,38.82-13.25,44.45ZM1404.85,747.24c52.45-13.16,40.43-87.83-14.21-80.66-3.15.41-13.65,3.65-14.48,7.63,30.68,0,47.73,22.54,40.58,52.36-2.41,10.06-10.31,11.71-11.89,20.68ZM1477.81,721.16c5.85-13.86-2.16-24.07-15.61-28.66,1.18,3.69,9.68,34.22,15.61,28.66Z"/><path class="cls-1" d="M859.87,1695.05c-.25,1-4.57,4.7-5.19,3.91-1.63-3.8,2.58-7.57,2.58-9.13v-63.88h2.61c-3.15,18.75,4.24,52.39,0,69.1Z"/><rect class="cls-1" x="1545.62" y="1099.25" width="2.61" height="67.79"/><path class="cls-1" d="M1171.46,348.31c1.69.87,1.69,1.74,0,2.61v-2.61Z"/><path class="cls-1" d="M829.88,468.25c1.69.87,1.69,1.74,0,2.61v-2.61Z"/><path class="cls-1" d="M2368.27,2254.34c1.69.87,1.69,1.74,0,2.61v-2.61Z"/></svg>